<?xml version="1.0" encoding="utf-8"?>
<svg version="1.1" id="Layer_1" x="0px" y="0px"
	  viewBox="0 0 570.7 560" style="enable-background:new 0 0 570.7 560;" xml:space="preserve">
<style type="text/css">
	.st0{fill:#FFFF3E;stroke:#000000;stroke-miterlimit:10;}
	.st1{fill:#FF556C;stroke:#000000;stroke-miterlimit:10;}
</style>
<polygon class="st0" points="154.5,218 61.5,278.2 189.1,314.8 221.1,409 280.7,348.1 369.8,414.8 352.5,301.3 446.8,290.4 
	353.8,220.5 394.2,135.9 306.4,164.1 233.9,91.1 237.8,170.5 132.7,142.3 "/>
<path class="st1" d="M225,289.8l-64.1-25.6l58.3-14.1c0,0,4.5-58.3,6.4-58.3s39.7,31.4,39.7,31.4l57.7-44.2l-1.9,58.3l46.2,30.8
	l-49.4,4.5l3.8,77.6l-48.1-45.5l-41,45.5L225,289.8z"/>
<polygon class="st0" points="260.2,260.9 240.4,223.7 278.8,244.9 287.2,225.7 292.9,246.8 319.8,251.9 293.6,267.3 303.2,300.7 
	275.6,287.2 236.5,285.9 "/>
</svg>
